PathFileType	4	(X/Y/Z)	C:\Users\Basilio\Documents\Thesis Gigler\squatting_fais\c3dfiles\054\SJ_pre2\markers_experimental.trc
DataRate	CameraRate	NumFrames	NumMarkers	Units	OrigDataRate	OrigDataStartFrame	OrigNumFrames
200.000000	200.000000	4	61	mm	200.000000	523	2095
Frame#	Time	FHD			LBHD			RBHD			C7			T10			CLAV			LSHO			LUUPA			LMUPA			LDUPA			LLEP			LMEP			LRAD			LUL			LRFIN			RSHO			RUPA1			RMUPA			RDUPA			RLEP			RMEP			RRAD			RUL			RUFIN			LASI			RASI			USACR			LSACR			RSACR			LTHI1			LTHI2			LTHI3			LTHI4			LLFC			LMFC			LTIB1			LTIB2			LTIB3			LTIB4			LLMAL			LMMAL			LHEE			LMT1			LMT2			LMT5			RTHI			RTHI2			RTHI3			RTHI4			RLFC			RMFC			RTIB1			RTIB2			RTIB3			RTIB4			RLMAL			RMMAL			RHEE			RMT1			RMT2			RMT5			
		X1	Y1	Z1	X2	Y2	Z2	X3	Y3	Z3	X4	Y4	Z4	X5	Y5	Z5	X6	Y6	Z6	X7	Y7	Z7	X8	Y8	Z8	X9	Y9	Z9	X10	Y10	Z10	X11	Y11	Z11	X12	Y12	Z12	X13	Y13	Z13	X14	Y14	Z14	X15	Y15	Z15	X16	Y16	Z16	X17	Y17	Z17	X18	Y18	Z18	X19	Y19	Z19	X20	Y20	Z20	X21	Y21	Z21	X22	Y22	Z22	X23	Y23	Z23	X24	Y24	Z24	X25	Y25	Z25	X26	Y26	Z26	X27	Y27	Z27	X28	Y28	Z28	X29	Y29	Z29	X30	Y30	Z30	X31	Y31	Z31	X32	Y32	Z32	X33	Y33	Z33	X34	Y34	Z34	X35	Y35	Z35	X36	Y36	Z36	X37	Y37	Z37	X38	Y38	Z38	X39	Y39	Z39	X40	Y40	Z40	X41	Y41	Z41	X42	Y42	Z42	X43	Y43	Z43	X44	Y44	Z44	X45	Y45	Z45	X46	Y46	Z46	X47	Y47	Z47	X48	Y48	Z48	X49	Y49	Z49	X50	Y50	Z50	X51	Y51	Z51	X52	Y52	Z52	X53	Y53	Z53	X54	Y54	Z54	X55	Y55	Z55	X56	Y56	Z56	X57	Y57	Z57	X58	Y58	Z58	X59	Y59	Z59	X60	Y60	Z60	X61	Y61	Z61	

524	2.615	-155.9524383544922	1752.586669921875	-898.8273925781252	-307.4273376464844	1683.329223632813	-977.299743652344	-328.1936340332032	1671.900146484375	-839.0454711914065	-354.5149536132813	1536.1953125	-903.473815917969	-422.9803466796876	1200.476928710938	-922.2287597656252	-214.6035614013672	1463.381713867188	-913.2138671875002	-264.7569885253907	1535.632690429688	-1068.267333984375	-361.4649658203126	1416.770385742188	-1251.920288085938	-329.0430603027344	1376.009521484375	-1256.478637695313	-375.4320373535157	1363.1787109375	-1294.538940429688	-377.4993286132813	1299.215209960938	-1315.22607421875	-454.5744934082032	1291.027587890625	-1270.80712890625	-380.5203247070313	1082.27734375	-1162.922485351563	-338.8354187011719	1043.522705078125	-1215.34619140625	-322.8785705566407	1083.748779296875	-1125.564697265625	-256.0431518554688	1519.769409179688	-745.2652587890626	-365.1737670898438	1374.132568359375	-582.7707519531251	-342.2128295898438	1330.760864257813	-581.9196777343751	-393.6784057617189	1317.269653320313	-552.4374389648439	-407.0399780273439	1268.93017578125	-541.0310058593751	-470.5081787109376	1269.544189453125	-599.5735473632814	-394.3175659179689	1054.093017578125	-714.1163330078126	-329.0805358886719	1067.410766601563	-733.5284423828126	-351.8145751953126	1022.941772460938	-652.9357299804689	-243.0896911621094	1009.207824707031	-1053.405517578125	-240.5382385253907	1005.565490722656	-797.6711425781252	-429.7418823242189	1105.3193359375	-922.6238403320315	-435.8995361328126	1074.845336914063	-951.5892333984377	-433.823944091797	1071.772338867188	-895.2263793945315	-377.7428283691407	803.0364990234377	-1159.87744140625	-350.3369445800782	723.9924316406251	-1175.397827148438	-303.9566955566407	727.1540527343751	-1179.099365234375	-378.7901000976563	670.4453735351564	-1161.258544921875	-376.4960327148438	513.1874389648439	-1161.792358398438	-308.8844299316407	486.330780029297	-1047.51953125	-328.5001831054688	345.3627319335938	-1163.360473632813	-395.8711242675782	309.9002075195313	-1208.581787109375	-351.7277526855469	303.2813720703126	-1199.568115234375	-347.7725830078126	221.0764312744141	-1179.800415039063	-417.1406250000001	89.01445770263673	-1227.828247070313	-363.7960510253907	99.3256759643555	-1146.025634765625	-469.8030700683595	51.27082824707033	-1163.236938476563	-250.4933166503907	54.63865280151369	-1198.286499023438	-254.9905700683594	58.26195144653322	-1247.851684570313	-314.8072814941407	35.4330177307129	-1289.49609375	-357.1748962402344	735.6858520507814	-694.9605712890626	-321.3850708007813	682.4518432617189	-679.2575073242189	-288.6626281738282	683.1743164062501	-678.3377685546876	-346.8643188476563	602.5610351562501	-690.4534912109376	-357.1542663574219	513.2593383789064	-678.3464965820314	-278.0579528808594	494.2433166503907	-788.353698730469	-315.5815734863282	403.4414367675782	-652.3006591796876	-399.6982421875001	342.3703918457032	-628.7163085937501	-354.8994445800782	330.7756042480469	-623.9672241210939	-340.3482360839844	275.7574768066407	-634.9169921875001	-419.4765625000001	104.769775390625	-599.0041503906251	-361.3592529296876	108.0567016601563	-675.0256347656251	-467.9800720214845	61.40769577026369	-665.8993530273439	-246.3787689208985	51.46971893310548	-619.1849365234376	-257.9976196289063	55.98948287963869	-572.8037109375001	-316.4445495605469	36.91121673583985	-536.6838378906251	
525	2.62	-157.4656524658203	1753.471923828125	-899.1624145507815	-308.6839294433594	1683.2099609375	-977.6134033203127	-329.5589599609376	1671.877319335938	-839.4650878906252	-355.0529174804688	1536.180053710938	-903.636413574219	-422.5531616210939	1200.275756835938	-922.195739746094	-214.9287109375001	1463.712036132813	-913.1839599609377	-265.1705932617188	1535.691284179688	-1068.403930664063	-361.1726989746094	1416.348266601563	-1251.838500976563	-328.9304504394532	1375.741088867188	-1256.461669921875	-375.8629455566407	1363.103515625	-1294.676635742188	-377.1309204101563	1298.695922851563	-1315.219848632813	-454.3608398437501	1290.452392578125	-1270.7783203125	-379.6691894531251	1081.962768554688	-1162.700561523438	-337.9462890625001	1043.214599609375	-1214.990844726563	-321.9834594726563	1083.616943359375	-1125.366455078125	-256.5401611328126	1520.153442382813	-745.2938842773439	-365.4035949707032	1374.1396484375	-582.9759521484376	-342.2752380371094	1330.897338867188	-581.9614868164064	-393.8132934570314	1317.270629882813	-552.5474853515626	-407.0535583496095	1268.920288085938	-541.1401367187501	-470.4378662109376	1269.30078125	-599.7139892578126	-393.7805175781251	1053.90087890625	-713.8968505859376	-328.3629150390626	1067.27099609375	-733.1823120117189	-351.4294738769532	1022.927368164063	-652.6726074218751	-241.9675292968751	1009.354125976563	-1053.0185546875	-239.9271850585938	1005.561706542969	-797.3403930664065	-428.8662719726564	1105.056640625	-922.5526123046877	-434.9349975585939	1074.71142578125	-951.4700317382815	-433.082733154297	1071.6328125	-895.126403808594	-376.8478698730469	803.1643066406252	-1159.534790039063	-349.5875854492188	724.0163574218751	-1175.23291015625	-303.2920227050782	727.0900878906251	-1178.729370117188	-378.5727844238282	670.6973266601564	-1160.7138671875	-376.1820983886719	513.2575073242189	-1161.431396484375	-308.1023559570313	486.5578918457032	-1047.373168945313	-328.2015075683594	345.4413757324219	-1163.333251953125	-396.0213012695314	309.9089965820313	-1208.006469726563	-351.5270690917969	303.3628845214844	-1199.347778320313	-347.3907775878907	221.2845764160157	-1179.675903320313	-417.0895385742189	89.15616607666017	-1227.67919921875	-363.5618591308594	99.39435577392581	-1145.932983398438	-469.7326965332032	51.35911560058595	-1163.110595703125	-250.4642639160157	54.6222381591797	-1198.40283203125	-254.9769592285157	58.22337341308595	-1247.924194335938	-314.7929077148438	35.43769073486329	-1289.45654296875	-356.9358825683594	735.4648437500001	-695.3449096679689	-321.3924865722657	682.2379760742189	-679.5475463867189	-288.3581542968751	682.9605102539064	-678.7346191406251	-346.6375732421876	602.2546997070314	-691.3119506835939	-356.9264526367188	512.8329467773439	-679.7180175781251	-276.8591308593751	494.1543273925782	-788.9235839843752	-315.2110595703126	403.1275634765626	-653.2443237304689	-399.6955566406251	342.0941467285157	-629.7889404296876	-354.8257446289063	330.3254394531251	-625.0362548828126	-339.7189025878907	275.4167785644532	-636.1158447265626	-419.2756958007814	104.5026016235352	-601.0131225585939	-360.6013793945313	107.4497222900391	-676.5659179687501	-467.494598388672	60.99467849731447	-667.7294311523439	-246.1620788574219	51.47992324829103	-619.3208007812501	-258.0330200195313	56.08749771118165	-573.1333618164064	-316.6017150878907	37.36862564086915	-537.2123413085939	
526	2.625	-159.0800323486328	1754.23486328125	-899.2308349609377	-309.7412719726563	1683.135131835938	-977.7854003906252	-330.7497558593751	1671.784790039063	-839.6845703125002	-355.5546569824219	1536.141235351563	-903.836364746094	-421.9768981933595	1199.962768554688	-922.065124511719	-215.7140197753907	1463.994140625	-913.1354980468752	-265.8188781738282	1535.86083984375	-1068.611572265625	-361.0331115722657	1415.824462890625	-1251.762084960938	-328.8746643066407	1375.419799804688	-1256.445190429688	-375.0472106933594	1362.234130859375	-1294.438842773438	-376.8281860351563	1298.243530273438	-1315.24609375	-454.0142822265626	1289.770629882813	-1270.610595703125	-378.8514709472657	1081.625122070313	-1162.49462890625	-337.0348815917969	1042.916259765625	-1214.702270507813	-321.0574645996094	1083.453735351563	-1125.274780273438	-256.9917297363282	1520.441284179688	-745.4016113281251	-365.6978759765626	1374.267333984375	-583.0878295898439	-342.4679870605469	1331.059448242188	-582.0582885742189	-394.0047302246095	1317.28466796875	-552.6118164062501	-407.0288391113282	1268.913696289063	-541.1966552734376	-470.4219665527345	1269.0341796875	-599.8686523437501	-393.140838623047	1053.833984375	-713.8653564453126	-327.7985534667969	1067.206665039063	-732.9190673828126	-351.0519714355469	1022.932006835938	-652.3887939453126	-241.1692199707032	1009.43359375	-1052.65625	-239.2413330078126	1005.455627441406	-796.8570556640627	-428.1509704589845	1104.833129882813	-922.3320922851565	-434.2335510253907	1074.478515625	-951.3195800781252	-432.2552795410157	1071.370483398438	-894.8886718750002	-376.2262268066407	803.4421997070315	-1159.101318359375	-348.7524108886719	724.1914062500001	-1174.775756835938	-302.7207641601563	727.2183227539064	-1178.46044921875	-377.8842163085938	670.8283081054689	-1160.338256835938	-375.9276428222657	513.4226074218751	-1161.199584960938	-307.4721374511719	486.3415527343751	-1047.235473632813	-327.8708801269532	345.5787353515626	-1163.3017578125	-395.7006225585939	309.9905090332032	-1207.422241210938	-351.2893066406251	303.4092407226563	-1199.318725585938	-346.9205932617188	221.398666381836	-1179.574462890625	-416.8833312988282	89.2831268310547	-1227.571533203125	-363.3933105468751	99.47132873535159	-1145.841796875	-469.5095214843751	51.41128158569337	-1163.097412109375	-250.4412994384766	54.61060333251955	-1198.47705078125	-254.8966064453126	58.23116302490236	-1247.954711914063	-314.7717590332032	35.43134307861329	-1289.481323242188	-356.4315185546876	735.2171630859376	-695.8484497070314	-321.1368408203126	681.7728881835939	-680.2720336914064	-288.3300781250001	682.6967163085939	-679.1129760742189	-346.3140258789063	602.0646972656251	-692.1934204101564	-356.6498107910157	512.4950561523439	-680.5961914062501	-275.7314758300782	494.1881103515626	-789.4436645507815	-314.9945068359376	402.7635803222657	-654.0523681640626	-399.3863220214845	341.5062255859376	-631.5700683593751	-354.6392211914063	329.9242858886719	-626.2408447265626	-339.5301208496094	274.9180603027344	-637.1206054687501	-419.0670471191407	104.4268188476563	-602.8047485351564	-359.8275451660157	106.7023468017578	-677.9441528320314	-466.4041748046876	60.27513504028322	-669.7969970703126	-246.0155334472657	51.34189605712892	-619.4796752929689	-257.9397583007813	56.37230682373048	-573.4778442382814	-316.6503295898438	37.69815063476563	-537.7962646484376	
527	2.63	-160.6635437011719	1754.9951171875	-899.4736328125002	-310.7940673828126	1683.05224609375	-978.0478515625002	-331.9271240234376	1671.702270507813	-839.8518676757815	-356.2020874023438	1535.80615234375	-903.9846801757815	-421.4040832519532	1199.789428710938	-921.9771118164065	-215.5043945312501	1464.459838867188	-913.057556152344	-266.1152038574219	1535.88232421875	-1068.643798828125	-361.1175537109376	1415.473510742188	-1251.8408203125	-329.3489074707032	1375.067504882813	-1256.130249023438	-375.1677551269532	1362.093139648438	-1294.6044921875	-376.5215454101563	1297.745361328125	-1315.17431640625	-453.6062927246095	1289.216674804688	-1270.532592773438	-377.7281799316407	1081.192138671875	-1162.140014648438	-336.0659179687501	1042.488159179688	-1214.33056640625	-320.5682678222657	1083.403930664063	-1124.8662109375	-257.7570800781251	1520.814086914063	-745.4163818359376	-365.9187622070313	1374.32373046875	-583.1517333984376	-342.7789306640626	1331.21337890625	-581.8854980468751	-394.2452392578126	1317.334106445313	-552.6191406250001	-407.1199035644532	1268.913818359375	-541.2125854492189	-470.3376770019532	1268.858154296875	-599.9280395507814	-392.6919860839845	1053.718505859375	-713.6487426757814	-327.4069213867188	1067.249389648438	-732.6287231445314	-350.3143920898438	1023.060668945313	-652.1956176757814	-240.2484588623047	1009.503601074219	-1052.276000976563	-238.5135650634766	1005.653930664063	-796.3056640625002	-427.2582397460939	1104.59033203125	-922.1271972656252	-433.6147766113282	1074.300659179688	-951.0539550781252	-431.4204711914064	1071.25634765625	-894.653991699219	-375.3891601562501	803.5147094726565	-1158.660278320313	-347.8156127929688	724.2080688476564	-1174.381713867188	-301.9302978515626	727.2886962890626	-1178.149047851563	-376.6827697753907	670.8056030273439	-1160.144165039063	-375.2897338867188	513.4983520507814	-1161.037109375	-306.9846496582032	486.373016357422	-1047.042724609375	-327.5883483886719	345.5232849121094	-1163.26953125	-395.6092224121095	310.0988159179688	-1207.111572265625	-350.9970397949219	303.4907836914063	-1199.231811523438	-346.8112182617188	221.4383697509766	-1179.516357421875	-416.7665405273439	89.44960784912111	-1227.410400390625	-363.2215881347657	99.49665069580081	-1145.64453125	-469.3804931640626	51.57721328735353	-1162.98046875	-250.3910217285157	54.59431838989259	-1198.561279296875	-254.8742828369141	58.24028778076173	-1248.080810546875	-314.7368164062501	35.48517608642579	-1289.487426757813	-356.0259094238282	734.9420166015626	-696.4468383789064	-320.8444519042969	681.4807128906251	-680.9611816406251	-288.0800781250001	682.4758911132814	-679.4689331054689	-346.0361633300782	601.7761230468751	-692.7311401367189	-356.4346313476563	512.1422729492189	-681.4212646484376	-274.9352722167969	494.1961669921876	-789.8142089843752	-314.8886413574219	402.5720214843751	-654.7171020507814	-399.2333374023439	341.1978454589844	-632.8086547851564	-354.4743041992188	329.3919372558594	-627.1105346679689	-339.1961669921876	274.7954101562501	-638.1223144531251	-418.9446716308595	104.2189331054688	-604.6597900390626	-359.0438232421876	105.9993209838867	-679.3690795898439	-466.1563720703126	59.83279037475587	-671.4956054687501	-245.6440582275391	50.96030807495119	-619.6399536132814	-257.6958618164063	56.69079208374025	-573.7642211914064	-316.9086303710938	37.99080276489259	-538.4810791015626	
